<svg id="Layer_1" data-name="Layer 1" xmlns="http://www.w3.org/2000/svg" viewBox="0 0 434.98 106.75"><defs><style>.cls-1{fill:#e7835e;}.cls-2{fill:#131313;}.cls-3{fill:#fcfcfc;}</style></defs><title>SML-logo</title><path class="cls-1" d="M768.46,625.57c-1.65.19-2.18-1.08-3-1.76-9.83-8-20.2-7.78-29.63.81-6.47,5.89-10.19,13.86-15.64,20.5-3,3.68-6.1,7.46-10.81,9.74,0-.8-.28-1.51-.07-1.69,6.83-5.62,10.71-13.39,15.27-20.69,4.25-6.81,9.17-13.06,16.54-16.89a22.18,22.18,0,0,1,26.17,4.2C769,621.62,769,623.46,768.46,625.57Z" transform="translate(-694.1 -561.16)"/><path class="cls-2" d="M865,636.54c-1.29,3-2.66,6-3.82,9-.47,1.23-1,2-2.38,2.08-1.55.09-1.93-1.06-2.39-2.11a33.41,33.41,0,0,0-4.66-8.41c0,2.16.12,4.33,0,6.48-.12,1.56,1.1,4-2.08,4-2.9,0-1.7-2.36-1.75-3.72-.15-4.31-.13-8.63,0-12.94,0-1.25-.94-3.18,1.49-3.52,2.09-.29,3.3.46,4.09,2.59,1.43,3.87,3.24,7.6,5.1,11.84,2.69-3.57,3.66-7.67,5.36-11.38.91-2,1.74-3.43,4.29-3.08,3.16.43,1.67,2.77,1.73,4.23.19,4.47.05,9,.08,13.44,0,1.44-.06,2.56-2,2.61s-2.11-1.06-2.1-2.51c0-2.8,0-5.61,0-8.41Z" transform="translate(-694.1 -561.16)"/><path class="cls-2" d="M950.24,635.83v9.41c0,1.19.08,2.35-1.68,2.39s-2.3-.76-2.28-2.41c.06-5,0-10,0-14.93,0-1.11-.35-2.56,1.19-2.89a3.27,3.27,0,0,1,3.87,1.43,50,50,0,0,0,8.38,10.43c0-3,0-6,0-8.93,0-1.42-.45-3.14,2-3.05s1.91,1.81,1.92,3.21c0,4.65,0,9.29,0,13.94,0,1.2.57,2.84-1.45,3.14a3.36,3.36,0,0,1-3.77-1.66c-2.24-3.56-4.68-7-7-10.48Z" transform="translate(-694.1 -561.16)"/><path class="cls-2" d="M706.34,575.18c15.84,4.58,28.85.41,39.23-12.16.86-1,1.52-2.82,3.46-1.22,2.2,1.81-.29,2.68-.89,3.43-9.13,11.45-21.06,16.44-35.61,14.43-3.06-.42-3.78.27-3.6,3.09.3,4.64.43,9.29.62,13.94,0,1,1.13,2.41-.92,2.66-1.65.2-2.41-.55-2.51-2.24C705.67,589.84,704.87,582.57,706.34,575.18Z" transform="translate(-694.1 -561.16)"/><path class="cls-2" d="M1092.05,635.27q0,4.88,0,9.74c0,1.33.16,2.69-1.94,2.62-1.91-.06-2-1.19-2-2.64,0-4.8,0-9.61,0-14.41,0-1.19-.66-2.88,1.31-3.21a3.33,3.33,0,0,1,3.82,1.54,57.9,57.9,0,0,0,8.34,10.84c0-3.16,0-6.33,0-9.49,0-1.52-.17-3.12,2.18-3,2,.14,1.73,1.62,1.74,2.91q0,7.2,0,14.41c0,1.11.34,2.58-1.15,2.91a3.35,3.35,0,0,1-3.91-1.41c-2.41-3.74-4.92-7.41-7.38-11.11Z" transform="translate(-694.1 -561.16)"/><path class="cls-2" d="M802.21,635.29c0,3.25,0,6.5,0,9.75,0,1.35.09,2.67-2,2.59s-2-1.31-2-2.71c0-4.81,0-9.62,0-14.42,0-1.21-.56-2.87,1.45-3.15a3.4,3.4,0,0,1,3.77,1.68,45.37,45.37,0,0,0,8.3,10.25c0-3,0-6,0-9,0-1.24-.42-2.78,1.68-2.92,2.26-.16,2.27,1.27,2.26,2.89,0,4.81,0,9.62,0,14.43,0,1.11.38,2.55-1.18,2.87s-2.9.2-3.91-1.37c-2.4-3.75-4.93-7.41-7.4-11.11Z" transform="translate(-694.1 -561.16)"/><path class="cls-2" d="M1128.14,632.82c-2.69,1.06-4.31-.11-6.27-1.2-2.64-1.46-5.63-1.17-7.57,1.52a6.82,6.82,0,0,0,.41,9.14c2.15,2.38,5,2.41,7.79,1,1.16-.6,2.41-1.69,2.08-3.1s-2-.58-3-.86c-1.24-.34-3.54.95-3.44-1.49.1-2.28,2.33-1,3.6-1.35a2,2,0,0,1,1,0c2,.59,5.17-1.48,6.06,1.33,1,3.3-1,6.09-3.7,8.08a10.39,10.39,0,1,1-11.91-17C1118.42,625.4,1124.57,626.91,1128.14,632.82Z" transform="translate(-694.1 -561.16)"/><path class="cls-2" d="M1072,641.08c0-4.87.06-8.18,0-11.48,0-1.75.68-2.33,2.36-2.32s1.71,1.2,1.72,2.35c0,5,0,10,0,15,0,1,.57,2.51-1,2.91a3.23,3.23,0,0,1-3.9-1.34c-2.41-3.71-4.91-7.36-8.15-12.21,0,4.49,0,7.7,0,10.91,0,1.3.27,2.66-1.83,2.78-2.32.13-2.31-1.23-2.3-2.83,0-4.82,0-9.65,0-14.47,0-1.05-.53-2.5,1-2.93a3.22,3.22,0,0,1,3.9,1.36C1066.18,632.49,1068.67,636.15,1072,641.08Z" transform="translate(-694.1 -561.16)"/><path class="cls-2" d="M730.59,605.21c-11,0-22,0-33-.05-1.22,0-3.33,1.06-3.5-1.4-.21-3,2.23-1.83,3.56-1.83q33.48-.1,67,0c1.34,0,3.8-1.18,3.77,1.63s-2.47,1.58-3.83,1.59C753.24,605.25,741.92,605.21,730.59,605.21Z" transform="translate(-694.1 -561.16)"/><path class="cls-2" d="M819.94,637.11c0-.5-.18-1.1,0-1.48,1.44-2.59-3.27-7.56,2.83-8.18,8.78-.9,13.38,1.75,14.57,7.72C838.5,640.85,836,645.49,831,647c-2.93.87-6,.49-8.93.61-1.95.08-2.11-1.06-2.09-2.53C820,642.42,819.94,639.77,819.94,637.11Zm6.91-6.18c-1.91-.36-3.06.11-2.84,2.49.19,2-.14,4,.1,5.9.2,1.6-1.24,4,1.08,4.65,2.54.66,5.38.35,7.11-2.18a7.33,7.33,0,0,0,.62-7.5C831.78,631.7,829.63,630.77,826.85,630.93Z" transform="translate(-694.1 -561.16)"/><path class="cls-2" d="M1054.72,647.25c-5,1.63-5.58-2.23-7.23-4.72-.68-1-.92-2.95-2.62-2.51s-.53,2.27-.9,3.42c-.47,1.46,1.33,4.06-1.91,4.15-3.65.09-2-2.8-2.1-4.35-.23-4.31,0-8.65-.11-13,0-2,.45-3.13,2.75-2.92,2,.18,4,.07,6,.19,2.9.19,5.15,1.44,6,4.38a5.34,5.34,0,0,1-2.42,6.49c-2,1.17-1.34,2.12-.52,3.46C1052.68,643.56,1053.62,645.3,1054.72,647.25ZM1044,633.32c.07,1.82-.5,3.7,2.28,3.53,2.15-.13,4.19-.42,4.39-3,.22-2.76-1.9-2.95-4-3.15C1044.35,630.52,1043.61,631.46,1044,633.32Z" transform="translate(-694.1 -561.16)"/><path class="cls-2" d="M917,637.24a41.4,41.4,0,0,1,.06-5.46c.22-1.62-1.45-4.45,2.13-4.36,3.19.08,1.95,2.72,1.81,4.12-.35,3.58,1,4.29,4.44,4.4,3.82.11,5-1,4.56-4.69-.16-1.43-1.2-4,2.09-3.87,2.86.09,1.86,2.24,1.89,3.65.11,4.3.12,8.61,0,12.92,0,1.4,1,3.55-1.87,3.67-3.3.13-2.19-2.39-2.12-3.85.17-3.23-.08-5.12-4.33-4.93-3.61.16-5.12.81-4.66,4.65.17,1.39,1.37,4-1.83,4.09-3.58.06-1.88-2.78-2.1-4.38A43.84,43.84,0,0,1,917,637.24Z" transform="translate(-694.1 -561.16)"/><path class="cls-2" d="M1095.78,606.5c-2.7,5.31-6.87,7.35-11.85,6.06a10.35,10.35,0,0,1,.57-20.15c4.85-1,8.77,1.08,11.16,6.09a5.33,5.33,0,0,1-5.36-1.12c-2.78-2.39-6-2.21-8.36.65a6.71,6.71,0,0,0,.07,9.14c2.41,2.85,5.6,3,8.35.51C1092,606.22,1093.55,606.22,1095.78,606.5Z" transform="translate(-694.1 -561.16)"/><path class="cls-2" d="M882.54,627.35c2-.42,2.59,1,3.12,2.41,1.8,5,3.66,9.89,5.31,14.89.27.8,1.75,2.22-.12,2.85a3,3,0,0,1-3.51-1c-3.07-3.9-6.75-3.85-10.13.18a2.73,2.73,0,0,1-3.49.75c-1.35-.59-.23-1.66.06-2.5,1.75-5,3.54-9.93,5.27-14.91C879.64,628.29,880.37,626.88,882.54,627.35Zm0,4.42c-1.16,3.77-3.13,5.91-2.1,8.53.21.51,3.75.56,4,.07C885.46,637.78,883.36,635.63,882.51,631.77Z" transform="translate(-694.1 -561.16)"/><path class="cls-2" d="M1018.14,646.65c2.39-6.49,4.36-12.46,6.81-18.22,1-2.26,4.62-1.56,5.64,1.08,2,5.07,3.72,10.23,5.51,15.37.28.81,1.47,1.89.1,2.51a2.82,2.82,0,0,1-3.54-.72c-3.69-4.17-6.37-4.14-10.45.11-1,1.06-2.09.86-3.18.76A.88.88,0,0,1,1018.14,646.65Zm9.44-13.42c-1.07,2.24-3.12,4.39-2.11,7.09.19.48,3.16.75,3.63.16C1031.15,637.87,1028.23,635.85,1027.58,633.23Z" transform="translate(-694.1 -561.16)"/><path class="cls-2" d="M903.92,627a10.47,10.47,0,0,1,7.93,3.49c.6.71,1.66,1.56,1,2.57s-2.12.6-3.19.42c-.57-.1-1.06-.72-1.58-1.12-2.92-2.22-6-2.4-8.42.38a6.72,6.72,0,0,0,.08,9.5c2.48,2.75,5.63,2.72,8.37.17,1.56-1.46,3.61-2.12,4.66-.63s-1,2.88-2.28,3.89a10.59,10.59,0,0,1-12.55.16c-4-2.94-4.93-7.08-3.7-11.53C895.54,629.64,899.17,627.47,903.92,627Z" transform="translate(-694.1 -561.16)"/><path class="cls-2" d="M1113.36,597.64c-2.07.68-3.66.72-5.23-1.25a2.6,2.6,0,0,0-4.31.31c-1.3,2,.33,2.95,2,3.63.76.32,1.58.47,2.37.74,2.75.95,5.48,2.11,5.7,5.47a5.56,5.56,0,0,1-3.52,5.54A8.41,8.41,0,0,1,1101,611a4.84,4.84,0,0,1-1.8-3.61c2-.54,3.61-1,5.08,1.26a2.78,2.78,0,0,0,4,.54c.7-.47,1.37-1,1.28-2-.17-1.79-1.66-2.32-3-2.9a13.93,13.93,0,0,0-1.45-.35c-3.16-1-6.2-2.25-5.93-6.23.25-3.56,2.87-5.22,6.11-5.43C1109.13,592,1112.61,592.84,1113.36,597.64Z" transform="translate(-694.1 -561.16)"/><path class="cls-2" d="M795.15,646.45a1,1,0,0,1-.75,1c-1.08.21-2.22.45-3.22-.54-4.42-4.37-6.54-4.41-10.34-.24a2.89,2.89,0,0,1-3.18.82c-1.84-.59-.64-2-.33-2.85,1.74-5,3.64-9.92,5.39-14.9.47-1.34.85-2.49,2.58-2.46,1.32,0,2.83-.27,3.42,1.31C790.84,634.34,792.87,640.1,795.15,646.45Zm-9.21-14c-3.37,8.55-3.37,8.55,2.81,7.79C787.87,637.77,787,635.38,785.94,632.44Z" transform="translate(-694.1 -561.16)"/><path class="cls-2" d="M1006.2,611.07c.25,1,0,1.61-1.11,1.66a3,3,0,0,1-3-1.19c-2.81-3.73-7.28-3.82-9.91-.07a2.72,2.72,0,0,1-3.39,1.16c-1.72-.59-.51-1.88-.17-2.87,1.76-5,3.47-10,5.34-15,.94-2.5,4.89-3.49,5.76-1.43C1002.15,599.15,1004.08,605.15,1006.2,611.07Zm-9.1-13.72-3,8.43c2.26-.23,4,.5,5.79-.54-.54-1.64-1-3.06-1.46-4.45C998.17,599.93,997.8,599.09,997.1,597.35Z" transform="translate(-694.1 -561.16)"/><path class="cls-2" d="M1003.63,637.25v-2c0-8.36,1.3-9.4,9.66-8,1.21.2,1.85.49,1.85,1.7s-.68,1.73-1.9,1.67-2.33,0-3.49,0c-1.83-.12-2.23.87-2.21,2.45s.15,3,2.37,2.79c.82-.09,1.66,0,2.49,0,1.14,0,1.9.3,1.85,1.67s-1,1.34-2,1.54c-1.58.3-3.92-1.25-4.61,1.35-.92,3.47,1,4.24,4.09,4,1.24-.1,3.33-.94,3.38,1.57s-2,1.62-3.3,1.66C1003.63,647.88,1003.63,647.85,1003.63,637.25Z" transform="translate(-694.1 -561.16)"/><path class="cls-2" d="M1041.35,592.08c.81.19,1.94.41,3,.74a4.94,4.94,0,0,1,3.63,3.71c.17.72,0,1.34-.8,1.48a4.19,4.19,0,0,1-4.26-1.64,2.64,2.64,0,0,0-4.32.31c-1.34,2,.31,3,1.94,3.64,1.06.44,2.18.74,3.28,1.1,3,1,5.05,2.67,4.64,6.08s-2.94,4.94-6.16,5.42a8.07,8.07,0,0,1-5.28-1.08c-1.68-1-3.82-2.58-2.59-4.48.76-1.17,3.26-.75,4.58,1.19a2.76,2.76,0,0,0,4,.64,2.23,2.23,0,0,0,1.26-2c0-1.93-1.57-2.34-2.91-2.91-.75-.33-1.59-.45-2.37-.71-3.09-1-5.57-2.62-5-6.33S1037.66,592.48,1041.35,592.08Z" transform="translate(-694.1 -561.16)"/><path class="cls-2" d="M960.43,592.13c2.39.09,4.52.52,6,2.23.8.9,2.22,2.14,1.07,3.33a2.84,2.84,0,0,1-3.69-.12c-1.83-1.83-4.15-3.52-5.51-.61-1.45,3.11,2.11,3.28,4.14,4.07,2.77,1.08,5.8,1.89,5.7,5.83a5.39,5.39,0,0,1-3.64,5.36,8.68,8.68,0,0,1-9.3-1.4c-1-.85-2.08-2.4-1.11-3.39a2.64,2.64,0,0,1,3.93.35,4.34,4.34,0,0,0,2.26,1.8,2.8,2.8,0,0,0,3.4-1.35,2.2,2.2,0,0,0-1.26-3.25,35.25,35.25,0,0,0-3.73-1.34c-3.38-1-5.62-2.88-4.86-6.82C954.59,593.11,957.57,592.58,960.43,592.13Z" transform="translate(-694.1 -561.16)"/><path class="cls-1" d="M828.39,606.12c0-3.48,0-7,0-10.44,0-1.23-.32-3.15,1.55-3s1.17,2.06,1.19,3.23c.09,4.65.07,9.31,0,14,0,1.07.47,2.52-1.12,2.91-1.4.35-2-.81-2.69-1.77l-4.43-6.64a21.24,21.24,0,0,0-5-5.62c0,3.41.09,6.83,0,10.25-.05,1.32.84,3.54-1.29,3.67-2.32.15-1.5-2.14-1.53-3.43-.11-4.49-.08-9,0-13.47,0-1.21-.58-2.9,1.31-3.28,1.62-.32,2.25,1.09,3,2.19q4,5.93,8,11.85Z" transform="translate(-694.1 -561.16)"/><path class="cls-2" d="M967.81,637.5v-2c0-8.9.65-9.45,9.4-8.23,1,.15,2.08.11,2.18,1.44.13,1.58-.87,2-2.22,1.89-.5,0-1,0-1.5,0-1.86.06-4-.7-3.89,2.71.09,3,1.87,2.41,3.64,2.54,1.15.09,3-.75,3.12,1.36.16,2.58-1.95,1.66-3.23,1.74-1.79.1-3.49-.42-3.54,2.58,0,3.31,1.91,2.67,3.85,2.81,1.42.1,3.82-1,3.72,1.79-.09,2.37-2.24,1.41-3.54,1.46C967.81,647.84,967.81,647.81,967.81,637.5Z" transform="translate(-694.1 -561.16)"/><path class="cls-1" d="M880,612.7c-4.15.56-4.2-2.76-5.61-4.46-1.2-1.44-1.55-4.18-4.19-3.33-2.09.68-.76,2.89-1.14,4.37-.32,1.24.86,3.49-1.58,3.37-1.8-.1-1.25-2-1.26-3.26-.06-4.64.06-9.29-.06-13.92-.06-2.38.87-3.38,3.21-3.16,2.13.2,4.36.06,6.39.62,4,1.09,6.09,6,3.17,8.51-4.13,3.57-1.93,6,0,9A22.73,22.73,0,0,1,880,612.7Zm-8-10.55c2.79.07,5-.47,5-3.6s-2.12-3.58-4.65-3.75-3.5.84-3.37,3.4C869.17,600.46,868.86,602.73,872,602.15Z" transform="translate(-694.1 -561.16)"/><path class="cls-1" d="M926.06,602.73a10,10,0,0,1-10.5,10.21c-5.88-.13-10-4.69-9.78-10.9a9.89,9.89,0,0,1,10.21-10C922,592.14,926.15,596.59,926.06,602.73Zm-2.88-.38c-.07-4.77-2.79-7.66-7.22-7.68a7.84,7.84,0,0,0,.29,15.68C920.58,610.17,923.25,607.08,923.18,602.35Z" transform="translate(-694.1 -561.16)"/><path class="cls-1" d="M795.9,607.4c-2.06,4.66-5.93,5.9-10.49,5.47a9.6,9.6,0,0,1-8.5-8.44c-.66-5.09,1.36-9.41,5.44-11.25a10.17,10.17,0,0,1,11.94,2c.76.71,2.21,1.79,1.27,2.83-1.09,1.19-2.41.27-3.35-.85-2.39-2.87-5.49-3-8.59-1.73-2.92,1.2-3.94,3.85-4,6.89,0,3.2.85,6.05,4,7.41,2.89,1.25,5.89,1.18,8.32-1.23C793,607.38,794,606.27,795.9,607.4Z" transform="translate(-694.1 -561.16)"/><path class="cls-1" d="M861.17,602.43c-1.22,3.32-7.62-1.43-7.18,4.88s6.71.61,8.17,4.72c-3,1.69-6.35.81-9.5.69-1.56-.06-1.39-1.63-1.4-2.76,0-4.81,0-9.63,0-14.45,0-1.5-.13-3.27,2.08-3.17,2.91.13,6.11-1.14,8.64.8,1,.79-.31,1.6-1.4,1.64-1.5.06-3,0-4.49.06-2.35,0-2,1.78-2,3.21s-.3,3,2,3.2C857.81,601.38,859.83,600.43,861.17,602.43Z" transform="translate(-694.1 -561.16)"/><path class="cls-1" d="M800.13,602.53v-3c0-7.79.6-8.3,8.53-7.28,1,.13,2.3,0,2.27,1.29s-1.39,1-2.31,1.27c-2,.56-5.28-1.77-5.62,2.69-.25,3.31,1.22,4,4.08,3.77,1.07-.11,2.76-.39,2.87,1.13s-1.59,1.37-2.65,1.34c-2.51-.07-4.44-.11-4.35,3.53.09,4,2.65,2.89,4.78,3.13,1.19.13,3.22-.58,3.13,1.34s-2.1,1.08-3.3,1.14C800.13,613.22,800.13,613.2,800.13,602.53Z" transform="translate(-694.1 -561.16)"/><path class="cls-2" d="M1013.91,604.17c0-1.82-.07-3.65,0-5.46s-.06-3.28-2.54-3c-1.25.14-2.93.39-2.74-1.73s1.93-1.37,3.12-1.4c3.14-.08,6.3,0,9.45,0,1.11,0,2,.23,2,1.58s-.69,1.81-1.91,1.59c-3.8-.7-3.35,1.88-3.32,4.21,0,2.81.19,5.64-.06,8.44-.14,1.59,1.47,4.5-2.11,4.34s-1.35-3-1.8-4.57A14.93,14.93,0,0,1,1013.91,604.17Z" transform="translate(-694.1 -561.16)"/><path class="cls-2" d="M1056.8,604.12c0-1.66-.12-3.32,0-5,.22-2.4-.33-3.86-3.16-3.46-1.22.17-2.48,0-2.38-1.7s1.52-1.43,2.64-1.44c3.15,0,6.31,0,9.46,0,1.07,0,2.46-.43,2.63,1.36s-1,2-2.23,1.79c-3-.44-3.11,1.33-3,3.57.11,3.64,0,7.29,0,10.94,0,1.47-.19,2.55-2.11,2.56-2.14,0-1.83-1.42-1.86-2.68C1056.77,608.1,1056.8,606.11,1056.8,604.12Z" transform="translate(-694.1 -561.16)"/><path class="cls-2" d="M976.13,604c0-1.49-.1-3,0-4.47.2-2.47-.13-4.29-3.32-3.77-1.09.18-1.93-.22-2-1.56s.87-1.6,2-1.6h10.44c1,0,2.14-.06,2.31,1.27.2,1.59-.87,2.07-2.18,1.87-3.2-.48-3.42,1.33-3.32,3.81.14,3.64,0,7.28,0,10.93,0,1.14.11,2.33-1.7,2.34s-2.35-.69-2.28-2.36C976.19,608.26,976.13,606.1,976.13,604Z" transform="translate(-694.1 -561.16)"/><path class="cls-2" d="M749.17,666.29c-.63,1.15-1.22,2.35-2.91,1.06-8.39-6.39-15.39-14.13-21.81-22.43-.76-1-.47-1.77.36-2.58a1.2,1.2,0,0,1,2.05.19c6,8.5,13.51,15.49,21.48,22.05A1.68,1.68,0,0,1,749.17,666.29Z" transform="translate(-694.1 -561.16)"/><path class="cls-1" d="M929.71,602.74a20.19,20.19,0,0,1,.06-4.47c.48-2.07-1.85-5.29,2.36-5.95,4.56-.72,9.59,1.29,10.7,4.4.77,2.14.28,4.53-1.45,5.33-4.49,2.07-1.88,4.34-.75,6.76.42.91,2.34,1.73.91,2.82s-2.21-.73-3.07-1.6c-.32-.34-.37-.95-.69-1.29-1.37-1.45-1.3-4.88-4.2-4.08-2.58.7-1,3.44-1.37,5.23-.23,1,.4,2.72-1.31,2.64s-1.12-1.76-1.16-2.8C929.65,607.4,929.71,605.07,929.71,602.74Zm2.5-3.48c.14,1.62-.75,4,2.35,3.66,2.75-.27,5.37-1,5.52-4.34.14-3-2-3.6-4.59-3.79C931.77,594.52,932.09,596.88,932.21,599.26Z" transform="translate(-694.1 -561.16)"/><path class="cls-2" d="M709.63,607.68c1.26,0,2.16.25,2.49,1.76a98.76,98.76,0,0,0,8.41,22.69c.67,1.35,1.13,2.62-.37,3.41-1.83,1-2-1-2.58-1.94a93.56,93.56,0,0,1-8.86-23.55C708.18,607.83,708.27,607.81,709.63,607.68Z" transform="translate(-694.1 -561.16)"/><path class="cls-2" d="M990.07,637.18c0-2.47.06-4.95,0-7.43,0-1.65.52-2.39,2.26-2.39s1.74,1.11,1.75,2.29c0,3.47.18,7,0,10.4-.21,3.15.29,5.15,4.12,4.55,1.2-.19,2.92-.47,2.72,1.69-.15,1.75-1.65,1.23-2.7,1.32C990.07,648.26,990.07,648.25,990.07,637.18Z" transform="translate(-694.1 -561.16)"/><path class="cls-1" d="M903.94,593.12c-1.64,2.53-3.66,1.58-5.33,1.62-2.24.06-3.79.21-3.75,3.16,0,2.61.89,3.59,3.47,3.42,1.2-.07,3.22-.59,3.35,1.11.15,2-1.95,1.45-3.06,1.32-4.5-.54-3.55,2.58-3.73,5.12-.09,1.34.8,3.61-1.25,3.72-2.71.14-1.53-2.41-1.58-3.78-.16-4.14.18-8.32-.13-12.45-.26-3.5,1.22-4.4,4.31-4.06C898.71,592.57,901.36,591.8,903.94,593.12Z" transform="translate(-694.1 -561.16)"/><path class="cls-2" d="M1026.57,602.29c0-2.32,0-4.63,0-6.95,0-1.3-.26-2.74,1.8-2.8,2.36-.06,2.08,1.5,2.07,3,0,4.63,0,9.26,0,13.89,0,1.3.74,3.22-1.75,3.3-2.85.09-2-2.07-2.05-3.52C1026.49,606.92,1026.57,604.6,1026.57,602.29Z" transform="translate(-694.1 -561.16)"/><path class="cls-1" d="M834.22,592.79c4.18-.92,8.38-.37,12.53-.36a1.09,1.09,0,0,1,1.16,1.26,1.22,1.22,0,0,1-1.45,1c-3.89-.45-3.73,2.09-3.68,4.73.08,3.64,0,7.29,0,10.94,0,1,0,2.2-1.29,2.31-1.86.16-1.48-1.42-1.5-2.46-.07-3.48-.16-7,0-10.44.15-3.13,0-5.69-4.24-5.09C835.05,594.81,834.58,594.27,834.22,592.79Z" transform="translate(-694.1 -561.16)"/><path class="cls-2" d="M1069,603c0-2.8,0-5.61,0-8.42,0-1.51.69-1.95,2.1-2,1.64-.07,1.91.8,1.9,2.12,0,5.28,0,10.57,0,15.85,0,1.19,0,2.28-1.75,2.29s-2.29-.77-2.25-2.4C1069.08,607.91,1069,605.43,1069,603Z" transform="translate(-694.1 -561.16)"/><path class="cls-2" d="M942.12,637.29c0,2.64,0,5.29,0,7.94,0,1.52-.27,2.53-2.19,2.41-1.58-.09-1.91-.88-1.9-2.22,0-5.29,0-10.59,0-15.89,0-1.42.5-2.07,2-2.17,2-.13,2.12,1,2.11,2.48C942.1,632.32,942.12,634.8,942.12,637.29Z" transform="translate(-694.1 -561.16)"/><path class="cls-2" d="M1084.09,637.52c0,2.48,0,5,0,7.43,0,1.27.25,2.71-1.86,2.69-1.81,0-2.2-.93-2.18-2.5q.07-7.67,0-15.34c0-1.62.47-2.43,2.23-2.43,2.13,0,1.81,1.46,1.82,2.73C1084.12,632.57,1084.09,635.05,1084.09,637.52Z" transform="translate(-694.1 -561.16)"/><path class="cls-3" d="M826.85,630.93c2.78-.16,4.93.77,6.07,3.36a7.33,7.33,0,0,1-.62,7.5c-1.73,2.53-4.57,2.84-7.11,2.18-2.32-.61-.88-3.05-1.08-4.65-.24-1.94.09-4-.1-5.9C823.79,631,824.94,630.57,826.85,630.93Z" transform="translate(-694.1 -561.16)"/><path class="cls-3" d="M1044,633.32c-.36-1.86.38-2.8,2.66-2.58,2.11.2,4.23.39,4,3.15-.2,2.54-2.24,2.83-4.39,3C1043.47,637,1044,635.14,1044,633.32Z" transform="translate(-694.1 -561.16)"/><path class="cls-3" d="M882.51,631.77c.85,3.86,3,6,1.86,8.6-.21.49-3.75.44-4-.07C879.38,637.68,881.35,635.54,882.51,631.77Z" transform="translate(-694.1 -561.16)"/><path class="cls-3" d="M1027.58,633.23c.65,2.62,3.57,4.64,1.52,7.25-.47.59-3.44.32-3.63-.16C1024.46,637.62,1026.51,635.47,1027.58,633.23Z" transform="translate(-694.1 -561.16)"/><path class="cls-3" d="M785.94,632.44c1.06,2.94,1.93,5.33,2.81,7.79C782.57,641,782.57,641,785.94,632.44Z" transform="translate(-694.1 -561.16)"/><path class="cls-3" d="M997.1,597.35c.7,1.74,1.07,2.58,1.37,3.44.48,1.39.92,2.81,1.46,4.45-1.79,1-3.53.31-5.79.54Z" transform="translate(-694.1 -561.16)"/><path class="cls-3" d="M872,602.15c-3.18.58-2.87-1.69-3-3.95-.13-2.56.75-3.58,3.37-3.4s4.71.57,4.65,3.75S874.83,602.22,872,602.15Z" transform="translate(-694.1 -561.16)"/><path class="cls-3" d="M923.18,602.35c.07,4.73-2.6,7.82-6.93,8a7.84,7.84,0,0,1-.29-15.68C920.39,594.69,923.11,597.58,923.18,602.35Z" transform="translate(-694.1 -561.16)"/><path class="cls-3" d="M932.21,599.26c-.12-2.38-.44-4.74,3.28-4.47,2.6.19,4.73.75,4.59,3.79-.15,3.36-2.77,4.07-5.52,4.34C931.46,603.22,932.35,600.88,932.21,599.26Z" transform="translate(-694.1 -561.16)"/></svg>