<svg width="390" height="88" viewBox="0 0 390 88" fill="none" xmlns="http://www.w3.org/2000/svg">
<path d="M12.2312 31.2356H1.57922C0.875499 31.2356 0.301239 30.6646 0.301239 29.9642C0.301239 29.9576 0.301239 29.9509 0.301239 29.9443C0.301239 29.9376 0.301239 29.931 0.301239 29.9244C0.301239 29.2206 0.875499 28.653 1.57922 28.653H12.2312C12.2014 29.0812 12.1848 29.5094 12.1848 29.9443C12.1848 30.3792 12.2014 30.8074 12.2312 31.2356ZM13.0478 24.4437L2.30617 23.0295C1.63897 22.9432 1.01823 23.3881 0.885458 24.0487C0.885458 24.0586 0.882138 24.0653 0.878819 24.0752C0.732764 24.7989 1.234 25.4927 1.96427 25.589L12.4271 26.9666C12.5698 26.1101 12.7756 25.2703 13.0412 24.447L13.0478 24.4437ZM14.8602 20.5465L4.13185 17.6717C3.51776 17.5057 2.87379 17.8178 2.62484 18.4053C2.62152 18.412 2.6182 18.4219 2.61488 18.4286C2.31281 19.1456 2.70782 19.9622 3.45801 20.1614L13.632 22.8868C13.9839 22.0735 14.3922 21.2901 14.8569 20.5432L14.8602 20.5465ZM17.4095 17.3397C17.456 17.2933 17.5058 17.2468 17.5523 17.197L6.96332 12.8118C6.40566 12.5794 5.75837 12.7719 5.41979 13.2732C5.41647 13.2799 5.40983 13.2865 5.40651 13.2964C4.95175 13.967 5.22726 14.8832 5.97413 15.1953L15.7532 19.2452C16.2577 18.5746 16.8087 17.9406 17.4095 17.3397ZM20.9447 14.5911L10.6346 8.64236C10.1367 8.35355 9.506 8.43654 9.09439 8.84153C9.08775 8.84817 9.08111 8.85481 9.07447 8.86145C8.47698 9.45566 8.60975 10.4515 9.33671 10.8731L18.6145 16.231C19.3448 15.6202 20.1215 15.0758 20.9348 14.5911H20.9447ZM23.0791 13.5122C23.6534 13.2699 24.2409 13.0574 24.8351 12.8782L14.9631 5.30615C14.5283 4.97087 13.9275 4.95427 13.4694 5.263C13.4628 5.26963 13.4528 5.27295 13.4462 5.27959C12.7225 5.76426 12.696 6.81989 13.3864 7.35103L22.0435 13.9936C22.382 13.8243 22.7273 13.6649 23.0758 13.5155L23.0791 13.5122ZM28.8782 12.2707L19.8294 2.81644C19.4676 2.43801 18.9099 2.32182 18.4253 2.51436C18.4153 2.51768 18.4087 2.521 18.3987 2.52432C17.5622 2.86292 17.3332 3.93847 17.9573 4.58912L25.6815 12.669C26.7238 12.44 27.7894 12.3072 28.8715 12.2707H28.8782ZM30.0134 12.1147C31.059 12.1147 31.693 12.1346 32.7021 12.3105L24.7023 1.43881C24.4003 1.04377 23.8957 0.861194 23.4111 0.970742C23.3978 0.970742 23.3845 0.977381 23.3712 0.9807C22.465 1.18652 22.0833 2.26539 22.6476 3.00234L29.6483 12.1246C29.7678 12.1246 29.8873 12.1213 30.0101 12.1213L30.0134 12.1147ZM59.6957 28.6496C59.6691 27.999 59.6193 27.355 59.5496 26.7176C59.4799 26.0603 59.387 25.4097 59.2741 24.769C59.1579 24.1018 59.0185 23.4379 58.8559 22.7872C58.6866 22.1034 58.494 21.4262 58.2783 20.7589C58.0492 20.0519 57.7936 19.3581 57.5148 18.6775C57.2161 17.9472 56.8874 17.2335 56.5356 16.5364C56.1539 15.7862 55.7422 15.0525 55.3008 14.3388C54.8228 13.5653 54.3116 12.8184 53.7672 12.0948C53.7606 12.0881 53.7572 12.0815 53.7506 12.0715C53.1664 11.2947 52.5423 10.5478 51.8851 9.8341C51.832 9.77434 51.7755 9.71791 51.7224 9.65816C51.0486 8.9378 50.3415 8.25396 49.6013 7.60332C49.4785 7.49709 49.359 7.39087 49.2362 7.28796C48.4793 6.64727 47.6926 6.03978 46.8727 5.47545C46.6636 5.33271 46.4545 5.18996 46.2421 5.05386C45.4089 4.50944 44.5492 4.00818 43.6629 3.54676C43.3508 3.3841 43.0355 3.22808 42.7168 3.07869C41.8239 2.65378 40.9044 2.27535 39.965 1.94007C39.5368 1.78737 39.1053 1.64462 38.6705 1.51516C37.7344 1.22967 36.7784 0.990659 35.8091 0.798122C35.2647 0.691894 34.717 0.598945 34.1627 0.519275C33.21 0.38649 32.2407 0.300181 31.2615 0.257026C30.8466 0.240428 30.4316 0.230469 30.0134 0.230469C29.635 0.230469 29.2566 0.237108 28.8782 0.250386C27.7429 0.293541 27.0591 1.52512 27.6267 2.50772L33.3494 12.4201C34.4979 12.6358 35.6199 12.9678 36.7087 13.4093C36.7883 13.4425 36.868 13.4724 36.9444 13.5089C37.8671 13.8973 38.7468 14.362 39.5833 14.8965C40.3999 15.4177 41.1733 16.0052 41.9002 16.6592C42.0131 16.7588 42.1227 16.8617 42.2322 16.9646C42.3616 17.0874 42.4878 17.2103 42.6139 17.3331C44.2537 18.973 45.5417 20.8818 46.4379 23.003C47.364 25.1939 47.8354 27.5276 47.8354 29.9377C47.8354 32.3477 47.3673 34.6814 46.4379 36.8723C45.5682 38.9238 44.3367 40.7795 42.7699 42.3829C42.7168 42.436 42.6637 42.4891 42.6106 42.5422C40.9708 44.1821 39.0621 45.4701 36.941 46.3664C35.7792 46.8577 34.5776 47.2195 33.3428 47.4519L27.3977 57.746C26.9363 58.546 27.4807 59.5519 28.4002 59.6017C28.9313 59.6315 29.4657 59.6448 30.0034 59.6448C40.058 59.6448 48.9441 54.6488 54.3215 47.0071C54.6867 46.4859 55.0352 45.9548 55.3705 45.4103C55.8319 44.6535 56.2634 43.8767 56.6584 43.0767C57.0202 42.3397 57.3555 41.5895 57.6576 40.8193C57.9397 40.1056 58.192 39.3819 58.4177 38.6417C58.6301 37.9512 58.816 37.2507 58.9787 36.5404C59.1314 35.8698 59.2608 35.1926 59.3671 34.5054C59.4666 33.8515 59.5496 33.1875 59.6061 32.5203C59.6625 31.8763 59.6957 31.2257 59.709 30.5717C59.7123 30.3592 59.7156 30.1435 59.7156 29.9277C59.7156 29.4961 59.7056 29.0646 59.689 28.6364L59.6957 28.6496ZM30.0134 47.7673C29.8939 47.7673 29.7711 47.7673 29.6516 47.7639L22.6509 56.8862C22.0866 57.6232 22.4683 58.7021 23.3745 58.9079C23.3878 58.9079 23.4011 58.9145 23.4144 58.9178C23.899 59.0274 24.4036 58.8415 24.7056 58.4498L32.7951 47.5581C31.7826 47.7341 31.059 47.7706 30.0134 47.7706V47.7673ZM25.801 47.2693L17.8975 55.1733C17.2602 55.8107 17.466 56.8929 18.2925 57.2481C18.3025 57.2514 18.3091 57.2547 18.3191 57.258C18.8004 57.4638 19.358 57.3576 19.7298 56.9891L28.9844 47.7341C27.9056 47.6743 26.8433 47.5183 25.8044 47.266L25.801 47.2693ZM23.0791 46.3697C22.7273 46.2203 22.3854 46.061 22.0468 45.8917L13.3897 52.5342C12.6993 53.0654 12.7292 54.1177 13.4495 54.6057C13.4561 54.6123 13.4661 54.6156 13.4727 54.6223C13.9308 54.9277 14.5316 54.9144 14.9665 54.5791L24.8351 47.0071C24.2409 46.8278 23.6567 46.6154 23.0791 46.373V46.3697ZM18.6245 43.6543L9.34667 49.0121C8.61971 49.4337 8.48694 50.4296 9.08443 51.0238C9.09107 51.0304 9.09771 51.0371 9.10435 51.0437C9.51264 51.4487 10.1433 51.5317 10.6446 51.2429L20.9481 45.2942C20.1348 44.8128 19.358 44.2651 18.6278 43.6543H18.6245ZM17.4095 42.5455C16.8087 41.9447 16.2577 41.3106 15.7532 40.6401L5.97413 44.69C5.22726 44.9987 4.95175 45.9182 5.40651 46.5888C5.40983 46.5954 5.41647 46.6021 5.41979 46.612C5.75837 47.1133 6.40566 47.3058 6.96332 47.0735L17.5523 42.6883C17.5058 42.6418 17.456 42.5953 17.4095 42.5455ZM13.6354 36.9985L3.46133 39.7239C2.71114 39.9264 2.31613 40.743 2.6182 41.4567C2.62152 41.4633 2.62484 41.4733 2.62815 41.4799C2.87379 42.0675 3.51776 42.3762 4.13517 42.2136L14.8602 39.3388C14.3955 38.5919 13.9872 37.8084 13.6354 36.9951V36.9985ZM12.4337 32.922L1.97091 34.2996C1.24064 34.3959 0.739403 35.0897 0.885458 35.8134C0.885458 35.8233 0.888777 35.83 0.892096 35.8399C1.02487 36.5005 1.64561 36.9453 2.31281 36.859L13.0545 35.4449C12.7889 34.6216 12.5831 33.7784 12.4404 32.9253L12.4337 32.922Z" fill="url(#paint0_linear_894_377)"/>
<path d="M220.296 10.0438C215.042 4.42845 208.445 1.43836 200.696 1.15743C192.768 0.882963 185.852 3.70192 180.136 9.53034C174.427 15.2587 171.541 22.2366 171.557 30.2672C171.57 38.0105 174.253 44.7495 179.536 50.3002C184.854 55.8897 191.451 58.8152 199.133 58.996C199.488 59.0089 199.84 59.0154 200.189 59.0154C207.645 59.0154 214.199 56.2255 219.692 50.7168C225.462 44.9271 228.378 37.9814 228.365 30.0735C228.352 22.3948 225.637 15.6558 220.296 10.0438ZM219.192 29.5472C219.292 35.2012 217.409 39.977 213.434 44.1424L213.424 44.1521C209.563 48.2918 204.935 50.1775 199.281 49.9192C194.047 49.7513 189.73 47.7299 186.084 43.742C182.51 39.8317 180.737 35.1108 180.821 29.7086C180.902 24.2386 182.778 19.7341 186.565 15.9368C190.385 12.1039 194.77 10.2375 199.979 10.2375C200.085 10.2375 200.192 10.2375 200.298 10.2375H200.334C205.484 10.2375 209.753 12.0813 213.383 15.8722C217.106 19.7632 219.004 24.2418 219.192 29.5472Z" fill="#FF3E00"/>
<path d="M98.7709 1.80653C98.2542 1.55789 97.6891 1.41904 97.1111 1.39321L96.094 1.32863C95.4417 1.28988 94.8508 1.27051 94.318 1.27051C87.3045 1.28342 81.3696 3.72458 76.6842 8.52616C72.0344 13.289 69.6804 19.3208 69.6934 26.4506L69.745 54.3818C69.745 54.4367 69.745 54.4883 69.745 54.5852V54.6595C69.7741 56.4419 70.8171 58.0177 72.4671 58.7636C73.0774 59.0413 73.7264 59.1769 74.3755 59.1769C74.9276 59.1769 75.483 59.0768 76.0126 58.8766C77.1718 58.4407 78.0921 57.5785 78.6023 56.4484C78.9058 55.7767 79.0156 55.2116 79.0091 54.3689L78.9542 25.6885C78.9478 21.452 80.4299 17.9001 83.4878 14.8293C86.5037 11.8036 90.1526 10.2634 94.3309 10.2569C94.741 10.2569 95.1479 10.2731 95.6452 10.3151L96.7172 10.4022C98.5255 10.483 100.208 9.49488 100.989 7.76088C102.006 5.51347 101.028 2.90117 98.7644 1.80976L98.7709 1.80653Z" fill="#FF3E00"/>
<path d="M134.658 1.2607C126.741 0.970084 119.808 3.77612 114.086 9.59485C108.368 15.3135 105.471 22.285 105.471 30.3156C105.471 38.3462 108.145 44.8043 113.415 50.3615C118.723 55.9607 125.314 58.8959 132.996 59.0896C140.629 59.3738 147.362 56.7808 153.003 51.398V58.8797C153.054 64.3529 151.269 68.6831 147.203 72.9293C143.332 77.0624 138.711 78.9547 133.05 78.6737C127.816 78.4961 123.505 76.4683 119.866 72.474C118.946 71.4633 118.239 70.5753 117.67 69.7261C117.183 68.9188 116.473 68.2859 115.614 67.8984C113.282 66.8425 110.531 67.8823 109.478 70.2136C108.765 71.7959 108.988 73.6203 110.06 74.9862C111.022 76.4102 112.113 77.7696 113.302 79.0225C118.61 84.6216 125.201 87.5568 132.883 87.7506C133.254 87.7635 133.625 87.77 133.993 87.77C141.427 87.77 147.969 84.993 153.455 79.5068C159.009 73.9529 161.934 67.3366 162.16 59.8291L162.26 30.871L162.267 30.645C162.27 30.5029 162.276 30.3608 162.276 30.2155C162.276 22.5369 159.574 15.7914 154.246 10.1761C149.002 4.55109 142.411 1.54808 134.662 1.25424L134.658 1.2607ZM153.103 29.6795C153.193 35.3368 151.301 40.1061 147.32 44.2651L147.313 44.2748C143.441 48.4079 138.817 50.2969 133.16 50.0192C127.929 49.8416 123.615 47.8138 119.976 43.8195C116.408 39.9059 114.645 35.1786 114.735 29.7764C114.826 24.3096 116.711 19.8083 120.502 16.0142C124.319 12.1975 128.698 10.3375 133.89 10.3375C134.009 10.3375 134.129 10.3375 134.248 10.3375C139.415 10.3375 143.693 12.1878 147.323 15.9948C151.039 19.8923 152.932 24.3742 153.109 29.6795H153.103Z" fill="#FF3E00"/>
<path d="M226.26 52.8169H224.804V52H228.565V52.8169H227.109V57.8123H226.263V52.8169H226.26Z" fill="#FF3E00"/>
<path d="M229.679 52H230.971L232.444 55.9588C232.531 56.1945 232.602 56.4593 232.682 56.7112C232.676 56.7112 232.834 56.1945 232.921 55.9588L234.394 52H235.692V57.8123H234.82V53.2077L233.118 57.8123H232.247L230.545 53.2077V57.8123H229.683V52H229.679Z" fill="#FF3E00"/>
<g clip-path="url(#clip0_894_377)">
<path d="M258.295 6.22754H261.492V14.9954H269.072V6.22754H272.269V27.0906H269.072V17.8994H261.492V27.0906H258.295V6.22754Z" fill="#222222"/>
<path d="M277.638 18.0603V6.22754H280.867V17.9973C280.867 22.5282 281.79 24.3196 284.753 24.3196C287.717 24.3196 288.676 22.5282 288.676 17.9973V6.22754H291.905V18.0603C291.905 24.645 289.829 27.318 284.753 27.318C279.678 27.318 277.638 24.645 277.638 18.0603Z" fill="#222222"/>
<path d="M296.746 19.953H299.944C299.944 22.8885 301.362 24.3544 304.195 24.3544C306.632 24.3544 307.919 23.3433 307.919 21.321C307.919 16.3003 297.21 18.9419 297.21 11.5735C297.21 8.11674 299.845 6 303.898 6C308.411 6 310.819 8.37915 310.819 12.8785H307.657C307.657 10.2055 306.437 8.93545 303.834 8.93545C301.758 8.93545 300.407 9.84863 300.407 11.4126C300.407 16.4333 311.049 13.5958 311.049 21.1601C311.049 25.0402 308.513 27.3214 304.227 27.3214C299.219 27.3214 296.746 24.8758 296.746 19.953Z" fill="#222222"/>
<path d="M318.759 9.19448H314.08V6.22754H326.568V9.19448H321.889V27.0906H318.759V9.19448Z" fill="#222222"/>
<path d="M330.848 6.22754H334.045V24.1901H340.273V27.0906H330.848V6.22754Z" fill="#222222"/>
<path d="M344.687 6.22754H356.386V9.19448H347.852V14.9954H355.598V17.8959H347.852V24.1237H356.386V27.0906H344.687V6.22754Z" fill="#222222"/>
<path d="M362.02 27.2548C360.768 27.0904 360.309 26.5061 360.309 25.2325C360.309 23.7316 361.002 23.1123 362.484 23.1123C363.966 23.1123 364.627 23.7316 364.627 25.2325C364.627 26.3067 364.33 28.3954 363.969 31.3624H361.893L362.024 27.2548H362.02Z" fill="#222222"/>
<path d="M258.295 37.0166H261.492V45.7845H269.072V37.0166H272.269V57.8797H269.072V48.6884H261.492V57.8797H258.295V37.0166Z" fill="#222222"/>
<path d="M282.479 37.0166H286.663L292.761 57.8797H289.401L288.315 53.8036H280.736L279.583 57.8797H276.287L282.483 37.0166H282.479ZM287.586 51.197L284.555 40.0815L281.425 51.197H287.586Z" fill="#222222"/>
<path d="M296.747 37.0166H300.733L308.74 52.663V37.0166H311.902V57.8797H308.078L299.94 42.0688V57.8797H296.743V37.0166H296.747Z" fill="#222222"/>
<path d="M317.638 37.0166H324.032C329.207 37.0166 331.643 40.8617 331.643 47.3169C331.643 53.7721 329.009 57.8797 323.767 57.8797H317.638V37.0166ZM323.24 54.9442C326.536 54.9442 328.513 53.1179 328.513 47.2854C328.513 41.453 326.667 39.9521 323.406 39.9521H320.803V54.9477H323.24V54.9442Z" fill="#222222"/>
<path d="M336.779 37.0166H339.976V54.9792H346.204V57.8797H336.779V37.0166Z" fill="#222222"/>
<path d="M350.618 37.0166H362.318V39.9835H353.783V45.7845H361.529V48.6849H353.783V54.9127H362.318V57.8797H350.618V37.0166Z" fill="#222222"/>
<path d="M367.258 37.0166H373.653C378.827 37.0166 381.264 40.8617 381.264 47.3169C381.264 53.7721 378.629 57.8797 373.388 57.8797H367.258V37.0166ZM372.861 54.9442C376.157 54.9442 378.134 53.1179 378.134 47.2854C378.134 41.453 376.288 39.9521 373.027 39.9521H370.424V54.9477H372.861V54.9442Z" fill="#222222"/>
<path d="M385.38 56.0216C385.38 54.5206 386.074 53.9014 387.556 53.9014C389.037 53.9014 389.699 54.5206 389.699 56.0216C389.699 57.5226 389.006 58.1069 387.556 58.1069C386.105 58.1069 385.38 57.4876 385.38 56.0216Z" fill="#222222"/>
</g>
<defs>
<linearGradient id="paint0_linear_894_377" x1="0.301239" y1="29.9443" x2="59.7189" y2="29.9443" gradientUnits="userSpaceOnUse">
<stop stop-color="#F2B83F"/>
<stop offset="0.49" stop-color="#FF3E00"/>
</linearGradient>
<clipPath id="clip0_894_377">
<rect width="131.404" height="57.1069" fill="white" transform="translate(258.295 1)"/>
</clipPath>
</defs>
</svg>
